<?xml version="1.0" standalone="no"?>
<!DOCTYPE svg PUBLIC "-//W3C//DTD SVG 20010904//EN"
 "http://www.w3.org/TR/2001/REC-SVG-20010904/DTD/svg10.dtd">
<svg version="1.0" xmlns="http://www.w3.org/2000/svg"
 width="140.000000pt" height="140.000000pt" viewBox="0 0 140.000000 140.000000"
 preserveAspectRatio="xMidYMid meet">

<g transform="translate(0.000000,140.000000) scale(0.100000,-0.100000)"
fill="#000000" stroke="none">
<path d="M0 701 l0 -701 303 0 302 1 -65 22 c-200 68 -358 245 -415 468 -23
87 -17 94 8 9 64 -214 206 -373 391 -438 93 -33 220 -34 316 -3 190 61 344
242 401 471 18 70 21 105 17 210 -4 106 -10 138 -35 213 -17 48 -46 113 -64
144 -51 85 -162 192 -240 230 -123 61 -158 65 -556 70 l-363 5 0 -701z m675
488 c4 -6 21 -9 39 -8 30 2 61 -4 101 -21 11 -4 28 -11 38 -14 10 -3 17 -15
17 -31 0 -24 9 -30 39 -25 7 1 24 -8 36 -20 13 -12 28 -20 33 -16 18 11 42
-20 46 -59 5 -47 20 -90 35 -100 6 -3 11 -15 11 -26 0 -10 9 -28 20 -39 18
-18 18 -22 5 -54 -9 -22 -11 -37 -5 -41 17 -11 11 -54 -9 -65 -12 -6 -17 -17
-15 -28 9 -34 -43 -127 -72 -128 -10 0 -26 -4 -35 -8 -10 -4 -24 -6 -33 -4 -9
2 -22 -8 -29 -22 -7 -14 -22 -25 -32 -25 -11 -1 -26 -4 -33 -9 -7 -4 -25 -6
-40 -4 -26 3 -27 1 -30 -42 -2 -35 3 -52 22 -79 31 -42 115 -106 161 -123 43
-15 40 -26 -11 -55 -70 -40 -164 -66 -239 -66 -63 0 -185 26 -185 39 0 3 18
29 40 58 51 67 53 108 10 184 -17 28 -34 52 -39 52 -5 0 -25 -7 -44 -15 -20
-8 -46 -15 -58 -15 -28 0 -59 27 -59 52 0 10 -6 18 -14 18 -17 0 -28 60 -14
77 7 9 5 15 -6 19 -22 9 -20 33 7 62 16 18 18 26 9 29 -10 4 -10 8 2 17 13 9
14 18 5 53 -9 34 -8 52 3 87 13 39 13 44 -2 54 -27 16 -32 88 -10 126 11 17
29 50 40 73 19 40 51 69 63 57 3 -3 21 6 40 20 19 14 39 26 44 26 6 0 16 7 24
16 8 10 22 14 38 11 14 -3 31 1 38 9 17 17 39 18 48 3z"/>
<path d="M785 1390 c264 -53 462 -287 506 -596 31 -221 -46 -466 -195 -618
-79 -81 -139 -120 -236 -153 l-65 -22 303 -1 302 0 0 700 0 700 -327 -1 c-195
-1 -312 -4 -288 -9z"/>
</g>
</svg>
